<svg version="1.1" id="Layer_1" xmlns="http://www.w3.org/2000/svg" width="150" height="36" viewBox="0 0 297.5 75" style="enable-background:new 0 0 297.5 75" xml:space="preserve">
<style>
    .st0{fill:#000}.st1{fill:none}.st2{enable-background:new}
  </style>

  <path class="st0" d="M47.3 32.8l-5.4 3.6c-3.5-5.1-9.3-8.1-15.5-8-11.2 0-19.7 8.1-19.7 20.1s8.5 20.1 19.7 20.1c6.2.1 12-2.9 15.5-8l5.2 3.8c-4.3 6.4-11.9 10.3-20.7 10.3C11.1 74.8 0 63.8 0 48.5s11.1-26.3 26.4-26.3c8.9.1 16.9 4.1 20.9 10.6M53.1 23h6.4v51h-6.4zM103.8 51.4H76v22.7h-6.4V23h35.6v6.1H76v16.2h27.8z"/>
  <path class="st1" d="M0 0h303v79.1H0z"/>
  <g class="st2">
    <path class="st0" d="M174.9 35.9c-1.1-.6-2-1.4-2.6-2.5-.6-1.1-1-2.3-1-3.6s.3-2.5 1-3.6c.6-1.1 1.5-1.9 2.6-2.5 1.1-.6 2.4-.9 3.8-.9 1.2 0 2.2.2 3.2.6 1 .4 1.7 1 2.4 1.8l-2 1.9c-.9-1.1-2.1-1.6-3.4-1.6-.8 0-1.6.2-2.2.6-.7.4-1.2.9-1.5 1.5s-.6 1.4-.6 2.2.2 1.6.6 2.2c.4.7.9 1.2 1.5 1.5.7.4 1.4.6 2.2.6 1.4 0 2.5-.5 3.4-1.6l2 1.9c-.6.8-1.4 1.4-2.4 1.8s-2 .6-3.2.6c-1.4 0-2.7-.3-3.8-.9zM186.4 23h3.1v11h6.8v2.6h-9.9V23zM198.1 23h3.1v13.6h-3.1V23zM216.8 36.6v-8.1l-4 6.7h-1.4l-4-6.5v8h-2.9V23h2.6l5.1 8.4 5-8.4h2.6v13.6h-3z"/>
  </g>
  <g class="st2">
    <path class="st0" d="M231.9 33.7h-6.3l-1.2 2.9h-3.2l6-13.6h3.1l6.1 13.6h-3.3l-1.2-2.9zm-1-2.4l-2.2-5.2-2.2 5.2h4.4z"/>
  </g>
  <g class="st2">
    <path class="st0" d="M239.9 25.6h-4.3V23h11.8v2.6h-4.3v11H240v-11zM259.6 34.1v2.5h-10.5V23h10.3v2.5h-7.1v2.9h6.3V31h-6.3v3.1h7.3z"/>
  </g>
  <g class="st2">
    <path class="st0" d="M166.7 41.7h3.1v13.6h-3.1V41.7z"/>
  </g>
  <g class="st2">
    <path class="st0" d="M185.5 41.7v13.6h-2.6l-6.8-8.2v8.2H173V41.7h2.6l6.7 8.2v-8.2h3.2z"/>
  </g>
  <g class="st2">
    <path class="st0" d="M201.7 41.7l-5.9 13.6h-3.1l-5.9-13.6h3.4l4.1 9.7 4.2-9.7h3.2z"/>
  </g>
  <g class="st2">
    <path class="st0" d="M213.3 52.8v2.5h-10.5V41.7H213v2.5h-7.1v2.9h6.3v2.4h-6.3v3.1h7.4z"/>
  </g>
  <g class="st2">
    <path class="st0" d="M217.1 55.1c-1-.3-1.8-.7-2.4-1.1l1.1-2.4c.6.4 1.3.8 2.1 1 .8.3 1.6.4 2.4.4.9 0 1.5-.1 2-.4.4-.3.6-.6.6-1.1 0-.3-.1-.6-.4-.8-.3-.2-.6-.4-1-.5-.4-.1-.9-.3-1.6-.4-1-.2-1.9-.5-2.5-.7-.7-.2-1.2-.6-1.7-1.2s-.7-1.3-.7-2.2c0-.8.2-1.5.6-2.1.4-.6 1.1-1.1 1.9-1.5s1.9-.6 3.1-.6c.9 0 1.7.1 2.5.3.8.2 1.5.5 2.2.9l-1 2.4c-1.3-.7-2.5-1.1-3.8-1.1-.9 0-1.5.1-1.9.4-.4.3-.6.7-.6 1.1s.2.8.7 1 1.2.4 2.2.7c1 .2 1.9.5 2.5.7.7.2 1.2.6 1.7 1.2s.7 1.2.7 2.2c0 .8-.2 1.5-.6 2.1-.4.6-1.1 1.1-1.9 1.5-.9.4-1.9.6-3.2.6-.9 0-2-.1-3-.4z"/>
  </g>
  <g class="st2">
    <path class="st0" d="M230.8 44.3h-4.3v-2.6h11.8v2.6H234v11h-3.1v-11zM252.3 55.3v-8.1l-4 6.7h-1.4l-4-6.5v8H240V41.7h2.6l5.1 8.4 5-8.4h2.6v13.6h-3zM269 52.7v2.5h-10.5V41.7h10.3v2.5h-7.1v2.9h6.3v2.4h-6.3v3.1h7.3zM283.9 41.7v13.6h-2.6l-6.8-8.2v8.2h-3.1V41.7h2.6l6.7 8.2v-8.2h3.2zM289.9 44.3h-4.3v-2.6h11.8v2.6h-4.3v11H290v-11z"/>
  </g>
  <g class="st2">
    <path class="st0" d="M164.3 62.9v3.6h6.3V69h-6.3v4.9h-3.1V60.4h10.3v2.5h-7.2zM175.1 72.5c-1.1-1.1-1.6-2.6-1.6-4.6v-7.6h3.1v7.5c0 2.4 1 3.6 3 3.6 1 0 1.7-.3 2.2-.9.5-.6.8-1.5.8-2.8v-7.5h3.1V68c0 2-.5 3.5-1.6 4.6-1.1 1.1-2.6 1.6-4.5 1.6s-3.4-.6-4.5-1.7zM201.3 60.4V74h-2.6l-6.8-8.2V74h-3.1V60.4h2.6l6.7 8.2v-8.2h3.2zM204.5 60.4h6.2c1.5 0 2.8.3 3.9.8 1.1.6 2 1.4 2.6 2.4.6 1 .9 2.2.9 3.6s-.3 2.5-.9 3.6c-.6 1-1.5 1.8-2.6 2.4-1.1.6-2.4.8-3.9.8h-6.2V60.4zm6 10.9c1.4 0 2.4-.4 3.2-1.1s1.2-1.8 1.2-3.1-.4-2.3-1.2-3.1-1.9-1.1-3.2-1.1h-2.9v8.4h2.9zM221.9 73.7c-1-.3-1.8-.7-2.4-1.1l1.1-2.4c.6.4 1.3.8 2.1 1 .8.3 1.6.4 2.4.4.9 0 1.5-.1 2-.4.4-.3.6-.6.6-1.1 0-.3-.1-.6-.4-.8-.3-.2-.6-.4-1-.5-.4-.1-.9-.3-1.6-.4-1-.2-1.9-.5-2.5-.7-.7-.2-1.2-.6-1.7-1.2-.5-.5-.7-1.3-.7-2.2 0-.8.2-1.5.6-2.1.4-.6 1.1-1.1 1.9-1.5s1.9-.6 3.1-.6c.9 0 1.7.1 2.5.3.8.2 1.5.5 2.2.9l-1 2.4c-1.3-.7-2.5-1.1-3.8-1.1-.9 0-1.5.1-1.9.4s-.6.7-.6 1.1c0 .5.2.8.7 1 .5.2 1.2.4 2.2.7 1 .2 1.9.5 2.5.7.7.2 1.2.6 1.7 1.2.5.5.7 1.2.7 2.2 0 .8-.2 1.5-.6 2.1s-1.1 1.1-1.9 1.5c-.9.4-1.9.6-3.2.6-1 .1-2-.1-3-.4z"/>
  </g>
  <path class="st0" d="M124 66.7l-6.5-57 21.9 8.4zM159 29.5L123.5 74l19.3-.1zM155.9 27l-25.4 31.9L149.3 0l12.8 19.4z"/>
  <path class="st1" d="M0 0h303v79.1H0z"/>
  <path class="st1" d="M0 0h303v79.1H0z"/>
</svg>
