<svg width="88" height="42" viewBox="0 0 88 42" fill="none" xmlns="http://www.w3.org/2000/svg">
<g clip-path="url(#clip0)">
<g clip-path="url(#clip1)">
<path d="M42.2493 12.7346V12.1234C42.2486 12.1107 42.2506 12.098 42.2552 12.0861C42.2597 12.0741 42.2669 12.0633 42.276 12.0543C42.2852 12.0453 42.2961 12.0383 42.3082 12.0338C42.3203 12.0292 42.3332 12.0273 42.3462 12.028H43.0815C43.0944 12.0273 43.1073 12.0292 43.1194 12.0338C43.1315 12.0383 43.1425 12.0453 43.1516 12.0543C43.1608 12.0633 43.1679 12.0741 43.1725 12.0861C43.1771 12.098 43.1791 12.1107 43.1783 12.1234V12.7346C43.1711 12.8786 43.1937 13.0227 43.2447 13.1579C43.2957 13.2931 43.374 13.4167 43.475 13.5212C43.5759 13.6257 43.6974 13.7089 43.8319 13.7658C43.9665 13.8226 44.1113 13.8519 44.2577 13.8519C44.4041 13.8519 44.549 13.8226 44.6836 13.7658C44.8181 13.7089 44.9396 13.6257 45.0405 13.5212C45.1415 13.4167 45.2198 13.2931 45.2708 13.1579C45.3218 13.0227 45.3444 12.8786 45.3372 12.7346V7.93321C45.3364 7.92049 45.3384 7.90775 45.343 7.89583C45.3476 7.88392 45.3547 7.87309 45.3638 7.86408C45.373 7.85507 45.384 7.84807 45.3961 7.84354C45.4082 7.83901 45.4211 7.83705 45.434 7.8378H46.1719C46.1849 7.83705 46.1978 7.83901 46.2099 7.84354C46.222 7.84807 46.233 7.85507 46.2421 7.86408C46.2513 7.87309 46.2584 7.88392 46.263 7.89583C46.2675 7.90775 46.2695 7.92049 46.2688 7.93321V12.7346C46.2688 13.8614 45.4628 14.604 44.2538 14.604C43.0448 14.604 42.2493 13.8511 42.2493 12.7346Z" fill="black"/>
<path d="M47.6034 12.5515V7.93321C47.6026 7.92049 47.6046 7.90775 47.6092 7.89583C47.6138 7.88392 47.6209 7.87309 47.63 7.86408C47.6392 7.85507 47.6502 7.84807 47.6623 7.84354C47.6743 7.83901 47.6873 7.83705 47.7002 7.8378H48.4486C48.4615 7.83705 48.4744 7.83901 48.4865 7.84354C48.4986 7.84807 48.5096 7.85507 48.5188 7.86408C48.5279 7.87309 48.535 7.88392 48.5396 7.89583C48.5442 7.90775 48.5462 7.92049 48.5454 7.93321V12.6108C48.5454 13.3147 49.0007 13.8021 49.6785 13.8021C49.8339 13.8037 49.988 13.7733 50.1308 13.7129C50.2737 13.6525 50.4021 13.5634 50.508 13.4513C50.6139 13.3391 50.6949 13.2065 50.7458 13.0618C50.7968 12.917 50.8165 12.7634 50.8037 12.6108V7.93321C50.803 7.92049 50.8049 7.90775 50.8095 7.89583C50.8141 7.88392 50.8212 7.87309 50.8304 7.86408C50.8395 7.85507 50.8505 7.84807 50.8626 7.84354C50.8747 7.83901 50.8876 7.83705 50.9005 7.8378H51.6359C51.6488 7.83705 51.6617 7.83901 51.6738 7.84354C51.6859 7.84807 51.6969 7.85507 51.706 7.86408C51.7152 7.87309 51.7223 7.88392 51.7269 7.89583C51.7315 7.90775 51.7335 7.92049 51.7327 7.93321V12.5515C51.7327 13.784 50.911 14.5937 49.6602 14.5937C48.4093 14.5937 47.6034 13.784 47.6034 12.5515Z" fill="black"/>
<path d="M52.8423 12.8093V12.5515C52.8415 12.5387 52.8435 12.526 52.8481 12.5141C52.8527 12.5022 52.8598 12.4913 52.8689 12.4823C52.8781 12.4733 52.8891 12.4663 52.9011 12.4618C52.9132 12.4573 52.9262 12.4553 52.9391 12.456H53.6561C53.669 12.4553 53.6819 12.4573 53.694 12.4618C53.7061 12.4663 53.7171 12.4733 53.7262 12.4823C53.7354 12.4913 53.7425 12.5022 53.7471 12.5141C53.7517 12.526 53.7537 12.5387 53.7529 12.5515V12.7706C53.7529 13.3818 54.2056 13.8021 54.9226 13.8021C55.6396 13.8021 55.9981 13.4024 55.9981 12.848C55.9981 12.2936 55.5428 11.979 54.6243 11.502C53.7058 11.0249 52.871 10.5763 52.871 9.48035C52.871 8.38444 53.6561 7.763 54.8075 7.763C56.0557 7.763 56.8695 8.4979 56.8695 9.5938V9.81298C56.8703 9.82571 56.8683 9.83845 56.8637 9.85037C56.8591 9.86228 56.852 9.8731 56.8429 9.88212C56.8337 9.89113 56.8227 9.89813 56.8106 9.90266C56.7986 9.90719 56.7856 9.90914 56.7727 9.90839H56.0374C56.0245 9.90914 56.0115 9.90719 55.9995 9.90266C55.9874 9.89813 55.9764 9.89113 55.9672 9.88212C55.9581 9.8731 55.951 9.86228 55.9464 9.85037C55.9418 9.83845 55.9398 9.82571 55.9406 9.81298V9.61443C55.9406 9.00331 55.5166 8.55463 54.7787 8.55463C54.169 8.55463 53.7738 8.87953 53.7738 9.47003C53.7738 10.0605 54.169 10.3003 55.1084 10.7774C56.1551 11.3498 56.9088 11.7598 56.9088 12.8016C56.9088 13.8872 56.1237 14.5937 54.886 14.5937C53.6482 14.5937 52.8423 13.8794 52.8423 12.8093Z" fill="black"/>
<path d="M61.7682 7.9332V8.54433C61.769 8.55706 61.767 8.5698 61.7624 8.58171C61.7578 8.59363 61.7507 8.60445 61.7415 8.61346C61.7324 8.62247 61.7214 8.62948 61.7093 8.63401C61.6972 8.63854 61.6843 8.64049 61.6714 8.63974H60.1013C60.0915 8.64093 60.0825 8.64546 60.0759 8.65253C60.0692 8.6596 60.0652 8.66876 60.0647 8.67842V14.4235C60.0654 14.4363 60.0634 14.449 60.0588 14.4609C60.0542 14.4728 60.0471 14.4836 60.038 14.4927C60.0288 14.5017 60.0179 14.5087 60.0058 14.5132C59.9937 14.5177 59.9807 14.5197 59.9678 14.5189H59.2299C59.217 14.5197 59.204 14.5177 59.1919 14.5132C59.1799 14.5087 59.1689 14.5017 59.1597 14.4927C59.1506 14.4836 59.1435 14.4728 59.1389 14.4609C59.1343 14.449 59.1323 14.4363 59.1331 14.4235V8.67842C59.1325 8.66876 59.1286 8.6596 59.1219 8.65253C59.1152 8.64546 59.1062 8.64093 59.0964 8.63974H57.6075C57.5945 8.64049 57.5816 8.63854 57.5695 8.63401C57.5574 8.62948 57.5464 8.62247 57.5373 8.61346C57.5282 8.60445 57.521 8.59363 57.5164 8.58171C57.5119 8.5698 57.5099 8.55706 57.5106 8.54433V7.9332C57.5095 7.92027 57.5112 7.90725 57.5156 7.89502C57.52 7.88279 57.5271 7.87164 57.5363 7.86234C57.5454 7.85304 57.5566 7.8458 57.5689 7.84112C57.5811 7.83644 57.5943 7.83442 57.6075 7.83522H61.6635C61.6773 7.83319 61.6913 7.83429 61.7046 7.83842C61.7179 7.84255 61.73 7.8496 61.7401 7.85905C61.7502 7.86849 61.758 7.88008 61.7629 7.89293C61.7677 7.90578 61.7695 7.91955 61.7682 7.9332Z" fill="black"/>
<path d="M46.6168 18.7633V19.3744C46.6176 19.3871 46.6156 19.3999 46.611 19.4118C46.6064 19.4237 46.5993 19.4345 46.5901 19.4435C46.581 19.4526 46.57 19.4596 46.5579 19.4641C46.5458 19.4686 46.5329 19.4706 46.52 19.4698H44.9499C44.9399 19.4709 44.9305 19.4754 44.9234 19.4824C44.9163 19.4894 44.9118 19.4986 44.9106 19.5085V25.2536C44.9114 25.2664 44.9094 25.2791 44.9048 25.291C44.9002 25.3029 44.8931 25.3137 44.884 25.3228C44.8748 25.3318 44.8638 25.3388 44.8517 25.3433C44.8397 25.3478 44.8267 25.3498 44.8138 25.349H44.0785C44.0656 25.3498 44.0526 25.3478 44.0406 25.3433C44.0285 25.3388 44.0175 25.3318 44.0083 25.3228C43.9992 25.3137 43.9921 25.3029 43.9875 25.291C43.9829 25.2791 43.9809 25.2664 43.9817 25.2536V19.5085C43.981 19.4984 43.9767 19.489 43.9695 19.4818C43.9623 19.4747 43.9526 19.4704 43.9424 19.4698H42.4508C42.4379 19.4706 42.425 19.4686 42.4129 19.4641C42.4008 19.4596 42.3898 19.4526 42.3807 19.4435C42.3715 19.4345 42.3644 19.4237 42.3598 19.4118C42.3552 19.3999 42.3532 19.3871 42.354 19.3744V18.7633C42.3532 18.7506 42.3552 18.7378 42.3598 18.7259C42.3644 18.714 42.3715 18.7032 42.3807 18.6942C42.3898 18.6851 42.4008 18.6781 42.4129 18.6736C42.425 18.6691 42.4379 18.6671 42.4508 18.6679H46.5095C46.5232 18.6655 46.5373 18.6662 46.5507 18.67C46.5641 18.6738 46.5765 18.6806 46.5868 18.6898C46.5972 18.699 46.6052 18.7104 46.6104 18.7231C46.6156 18.7358 46.6178 18.7496 46.6168 18.7633Z" fill="black"/>
<path d="M50.8038 25.2717L49.6707 22.4094C49.6707 22.381 49.6524 22.381 49.6314 22.381H48.6056C48.5952 22.381 48.5852 22.3851 48.5779 22.3924C48.5705 22.3996 48.5664 22.4095 48.5664 22.4197V25.2562C48.5671 25.2689 48.5651 25.2816 48.5606 25.2936C48.556 25.3055 48.5489 25.3163 48.5397 25.3253C48.5306 25.3343 48.5196 25.3413 48.5075 25.3459C48.4954 25.3504 48.4825 25.3523 48.4695 25.3516H47.7342C47.7213 25.3523 47.7084 25.3504 47.6963 25.3459C47.6842 25.3413 47.6732 25.3343 47.6641 25.3253C47.6549 25.3163 47.6478 25.3055 47.6432 25.2936C47.6386 25.2816 47.6366 25.2689 47.6374 25.2562V18.7555C47.6366 18.7428 47.6386 18.7301 47.6432 18.7182C47.6478 18.7062 47.6549 18.6954 47.6641 18.6864C47.6732 18.6774 47.6842 18.6704 47.6963 18.6659C47.7084 18.6613 47.7213 18.6594 47.7342 18.6601H49.9036C50.9869 18.6601 51.7039 19.4337 51.7039 20.558C51.7039 21.4167 51.2774 22.0458 50.5709 22.2856C50.5421 22.2856 50.5421 22.3037 50.5525 22.3321L51.7432 25.233C51.7507 25.2455 51.7545 25.2599 51.7541 25.2745C51.7537 25.289 51.7492 25.3032 51.741 25.3153C51.7328 25.3275 51.7213 25.337 51.7078 25.343C51.6943 25.349 51.6793 25.3511 51.6647 25.349H50.911C50.8867 25.3509 50.8625 25.3441 50.8429 25.3299C50.8232 25.3157 50.8093 25.2951 50.8038 25.2717ZM48.5716 19.4904V21.6281C48.5723 21.6379 48.5767 21.6471 48.584 21.6538C48.5913 21.6605 48.6009 21.6642 48.6109 21.6642H49.7832C50.3824 21.6642 50.7802 21.2258 50.7802 20.5683C50.7802 19.9107 50.3824 19.4518 49.7832 19.4518H48.6109C48.6004 19.4518 48.5905 19.4558 48.5831 19.4631C48.5757 19.4703 48.5716 19.4802 48.5716 19.4904Z" fill="black"/>
<path d="M56.3671 25.2613L56.0845 24.1551C56.0845 24.1371 56.0557 24.1267 56.0374 24.1267H53.8968C53.8785 24.1267 53.8576 24.1267 53.8497 24.1551L53.5592 25.2613C53.556 25.2866 53.5431 25.3097 53.5232 25.326C53.5032 25.3423 53.4778 25.3505 53.452 25.349H52.6957C52.6277 25.349 52.5884 25.3103 52.6093 25.2433L54.3993 18.7555C54.4036 18.7307 54.4168 18.7083 54.4365 18.6922C54.4561 18.6761 54.481 18.6675 54.5065 18.6679H55.4172C55.4427 18.6675 55.4676 18.6761 55.4873 18.6922C55.5069 18.7083 55.5201 18.7307 55.5245 18.7555L57.3249 25.2433C57.3432 25.3103 57.3065 25.349 57.2385 25.349H56.4718C56.4591 25.3501 56.4462 25.3486 56.4341 25.3448C56.4219 25.3409 56.4107 25.3348 56.4009 25.3266C56.3912 25.3185 56.3832 25.3085 56.3774 25.2973C56.3716 25.2861 56.3681 25.2739 56.3671 25.2613ZM54.0905 23.4022H55.8333C55.8516 23.4022 55.883 23.3815 55.8725 23.3635L54.9907 19.9288C54.9907 19.9004 54.9619 19.9004 54.9514 19.9288L54.0512 23.3635C54.0434 23.3815 54.0721 23.4022 54.0905 23.4022Z" fill="black"/>
<path d="M58.3219 25.2536V18.7633C58.3211 18.7506 58.3231 18.7378 58.3277 18.7259C58.3323 18.714 58.3394 18.7032 58.3485 18.6942C58.3577 18.6852 58.3687 18.6782 58.3808 18.6736C58.3929 18.6691 58.4058 18.6671 58.4187 18.6679H59.1436C59.1677 18.6664 59.1917 18.672 59.2127 18.6839C59.2336 18.6958 59.2506 18.7136 59.2613 18.7349L61.6165 23.2294C61.6348 23.2578 61.6636 23.2578 61.6636 23.2294V18.7633C61.6628 18.7506 61.6648 18.7378 61.6694 18.7259C61.674 18.714 61.6811 18.7032 61.6902 18.6942C61.6994 18.6852 61.7103 18.6782 61.7224 18.6736C61.7345 18.6691 61.7475 18.6671 61.7604 18.6679H62.4879C62.5008 18.6671 62.5137 18.6691 62.5258 18.6736C62.5379 18.6782 62.5489 18.6852 62.558 18.6942C62.5672 18.7032 62.5743 18.714 62.5789 18.7259C62.5835 18.7378 62.5854 18.7506 62.5847 18.7633V25.2536C62.5854 25.2664 62.5835 25.2791 62.5789 25.291C62.5743 25.3029 62.5672 25.3138 62.558 25.3228C62.5489 25.3318 62.5379 25.3388 62.5258 25.3433C62.5137 25.3478 62.5008 25.3498 62.4879 25.349H61.7499C61.7261 25.3507 61.7023 25.3452 61.6817 25.3332C61.6612 25.3212 61.6448 25.3034 61.6348 25.282L59.2796 20.7669C59.2613 20.7385 59.2299 20.7385 59.2299 20.7669V25.2433C59.2307 25.256 59.2287 25.2688 59.2241 25.2807C59.2195 25.2926 59.2124 25.3034 59.2032 25.3125C59.1941 25.3215 59.1831 25.3285 59.171 25.333C59.1589 25.3375 59.146 25.3395 59.1331 25.3387H58.4187C58.4067 25.3394 58.3946 25.3378 58.3832 25.3339C58.3718 25.33 58.3614 25.3239 58.3524 25.316C58.3434 25.3081 58.336 25.2985 58.3308 25.2878C58.3256 25.2771 58.3225 25.2655 58.3219 25.2536Z" fill="black"/>
<path d="M63.7439 23.6395V23.3816C63.7432 23.3689 63.7452 23.3561 63.7497 23.3442C63.7543 23.3323 63.7615 23.3215 63.7706 23.3125C63.7797 23.3035 63.7907 23.2964 63.8028 23.2919C63.8149 23.2874 63.8278 23.2854 63.8408 23.2862H64.5578C64.5707 23.2854 64.5836 23.2874 64.5957 23.2919C64.6078 23.2964 64.6188 23.3035 64.6279 23.3125C64.6371 23.3215 64.6442 23.3323 64.6488 23.3442C64.6534 23.3561 64.6553 23.3689 64.6546 23.3816V23.6008C64.6546 24.2119 65.1099 24.6322 65.8243 24.6322C66.5387 24.6322 66.8998 24.2325 66.8998 23.6781C66.8998 23.1237 66.4445 22.8091 65.526 22.3321C64.6075 21.8551 63.7727 21.4064 63.7727 20.3105C63.7727 19.2146 64.5578 18.5931 65.7092 18.5931C66.9574 18.5931 67.7712 19.328 67.7712 20.4239V20.6431C67.772 20.6558 67.77 20.6686 67.7654 20.6805C67.7608 20.6924 67.7537 20.7032 67.7445 20.7123C67.7354 20.7213 67.7244 20.7283 67.7123 20.7328C67.7002 20.7373 67.6873 20.7393 67.6744 20.7385H66.9495C66.9365 20.7397 66.9234 20.7381 66.9111 20.7337C66.8988 20.7293 66.8876 20.7223 66.8784 20.7132C66.8691 20.7041 66.862 20.6931 66.8576 20.681C66.8532 20.6689 66.8515 20.656 66.8527 20.6431V20.4446C66.8527 19.8334 66.4262 19.3848 65.6908 19.3848C65.0785 19.3848 64.6834 19.7097 64.6834 20.3002C64.6834 20.8907 65.0785 21.1305 66.0179 21.6075C67.0647 22.18 67.8209 22.59 67.8209 23.6317C67.8209 24.7173 67.0359 25.4238 65.7955 25.4238C64.5551 25.4238 63.7439 24.7096 63.7439 23.6395Z" fill="black"/>
<path d="M68.9226 25.2536V18.7633C68.9219 18.7506 68.9238 18.7378 68.9284 18.7259C68.933 18.714 68.9401 18.7032 68.9493 18.6942C68.9584 18.6851 68.9694 18.6781 68.9815 18.6736C68.9936 18.6691 69.0065 18.6671 69.0194 18.6679H69.7548C69.7677 18.6671 69.7806 18.6691 69.7927 18.6736C69.8048 18.6781 69.8158 18.6851 69.8249 18.6942C69.8341 18.7032 69.8412 18.714 69.8458 18.7259C69.8504 18.7378 69.8524 18.7506 69.8516 18.7633V25.2536C69.8524 25.2663 69.8504 25.2791 69.8458 25.291C69.8412 25.3029 69.8341 25.3137 69.8249 25.3228C69.8158 25.3318 69.8048 25.3388 69.7927 25.3433C69.7806 25.3478 69.7677 25.3498 69.7548 25.349H69.0194C69.0065 25.3498 68.9936 25.3478 68.9815 25.3433C68.9694 25.3388 68.9584 25.3318 68.9493 25.3228C68.9401 25.3137 68.933 25.3029 68.9284 25.291C68.9238 25.2791 68.9219 25.2663 68.9226 25.2536Z" fill="black"/>
<path d="M75.1402 18.7633V19.3744C75.1409 19.3871 75.139 19.3999 75.1344 19.4118C75.1298 19.4237 75.1227 19.4345 75.1135 19.4435C75.1044 19.4526 75.0934 19.4596 75.0813 19.4641C75.0692 19.4686 75.0563 19.4706 75.0433 19.4698H73.4733C73.4635 19.471 73.4545 19.4755 73.4478 19.4826C73.4411 19.4897 73.4372 19.4988 73.4366 19.5085V25.2536C73.4374 25.2664 73.4354 25.2791 73.4308 25.291C73.4262 25.3029 73.4191 25.3137 73.41 25.3228C73.4008 25.3318 73.3898 25.3388 73.3777 25.3433C73.3656 25.3478 73.3527 25.3498 73.3398 25.349H72.6018C72.5889 25.3498 72.576 25.3478 72.5639 25.3433C72.5518 25.3388 72.5408 25.3318 72.5317 25.3228C72.5225 25.3137 72.5154 25.3029 72.5108 25.291C72.5063 25.2791 72.5043 25.2664 72.505 25.2536V19.5085C72.5045 19.4988 72.5005 19.4897 72.4938 19.4826C72.4871 19.4755 72.4781 19.471 72.4684 19.4698H70.9768C70.9639 19.4706 70.951 19.4686 70.9389 19.4641C70.9268 19.4596 70.9158 19.4526 70.9066 19.4435C70.8975 19.4345 70.8904 19.4237 70.8858 19.4118C70.8812 19.3999 70.8792 19.3871 70.88 19.3744V18.7633C70.8792 18.7506 70.8812 18.7378 70.8858 18.7259C70.8904 18.714 70.8975 18.7032 70.9066 18.6942C70.9158 18.6851 70.9268 18.6781 70.9389 18.6736C70.951 18.6691 70.9639 18.6671 70.9768 18.6679H75.0329C75.0466 18.6655 75.0607 18.6662 75.0741 18.67C75.0875 18.6738 75.0998 18.6806 75.1102 18.6898C75.1205 18.699 75.1286 18.7104 75.1338 18.7231C75.139 18.7358 75.1412 18.7496 75.1402 18.7633Z" fill="black"/>
<path d="M76.1555 25.2536V18.7633C76.1548 18.7506 76.1567 18.7378 76.1613 18.7259C76.1659 18.714 76.173 18.7032 76.1822 18.6942C76.1913 18.6851 76.2023 18.6781 76.2144 18.6736C76.2265 18.6691 76.2394 18.6671 76.2523 18.6679H76.9877C77.0006 18.6671 77.0135 18.6691 77.0256 18.6736C77.0377 18.6781 77.0487 18.6851 77.0578 18.6942C77.067 18.7032 77.0741 18.714 77.0787 18.7259C77.0833 18.7378 77.0852 18.7506 77.0845 18.7633V25.2536C77.0852 25.2663 77.0833 25.2791 77.0787 25.291C77.0741 25.3029 77.067 25.3137 77.0578 25.3228C77.0487 25.3318 77.0377 25.3388 77.0256 25.3433C77.0135 25.3478 77.0006 25.3498 76.9877 25.349H76.2523C76.2394 25.3498 76.2265 25.3478 76.2144 25.3433C76.2023 25.3388 76.1913 25.3318 76.1822 25.3228C76.173 25.3137 76.1659 25.3029 76.1613 25.291C76.1567 25.2791 76.1548 25.2663 76.1555 25.2536Z" fill="black"/>
<path d="M78.3144 23.41V20.607C78.3144 19.4028 79.1465 18.5931 80.4078 18.5931C81.6691 18.5931 82.5013 19.4028 82.5013 20.607V23.41C82.5013 24.6219 81.6691 25.4342 80.4078 25.4342C79.1465 25.4342 78.3144 24.6219 78.3144 23.41ZM81.5592 23.4486V20.5864C81.5667 20.432 81.5423 20.2777 81.4874 20.1329C81.4326 19.988 81.3485 19.8557 81.2403 19.7438C81.132 19.6319 81.0018 19.5429 80.8576 19.482C80.7134 19.4212 80.5582 19.3898 80.4013 19.3898C80.2444 19.3898 80.0892 19.4212 79.945 19.482C79.8008 19.5429 79.6706 19.6319 79.5623 19.7438C79.4541 19.8557 79.37 19.988 79.3152 20.1329C79.2603 20.2777 79.2359 20.432 79.2434 20.5864V23.4486C79.2359 23.603 79.2603 23.7573 79.3152 23.9022C79.37 24.047 79.4541 24.1793 79.5623 24.2912C79.6706 24.4031 79.8008 24.4921 79.945 24.553C80.0892 24.6138 80.2444 24.6452 80.4013 24.6452C80.5582 24.6452 80.7134 24.6138 80.8576 24.553C81.0018 24.4921 81.132 24.4031 81.2403 24.2912C81.3485 24.1793 81.4326 24.047 81.4874 23.9022C81.5423 23.7573 81.5667 23.603 81.5592 23.4486Z" fill="black"/>
<path d="M83.726 25.2536V18.7633C83.7252 18.7506 83.7272 18.7379 83.7318 18.7259C83.7364 18.714 83.7435 18.7032 83.7527 18.6942C83.7618 18.6852 83.7728 18.6782 83.7849 18.6736C83.797 18.6691 83.8099 18.6672 83.8228 18.6679H84.5608C84.5846 18.6659 84.6086 18.6712 84.6292 18.6833C84.6499 18.6953 84.6662 18.7134 84.6759 18.735L87.031 23.2294C87.052 23.2578 87.0808 23.2578 87.0808 23.2294V18.7633C87.0796 18.7504 87.0813 18.7374 87.0857 18.7251C87.0901 18.7129 87.0972 18.7018 87.1064 18.6925C87.1156 18.6832 87.1267 18.6759 87.139 18.6712C87.1513 18.6666 87.1644 18.6645 87.1776 18.6653H87.9024C87.9154 18.6646 87.9283 18.6665 87.9404 18.6711C87.9525 18.6756 87.9635 18.6826 87.9726 18.6916C87.9818 18.7006 87.9889 18.7114 87.9935 18.7234C87.9981 18.7353 88 18.748 87.9993 18.7607V25.2511C88 25.2638 87.9981 25.2765 87.9935 25.2884C87.9889 25.3004 87.9818 25.3112 87.9726 25.3202C87.9635 25.3292 87.9525 25.3362 87.9404 25.3407C87.9283 25.3453 87.9154 25.3472 87.9024 25.3465H87.1776C87.1538 25.3481 87.13 25.3426 87.1094 25.3306C87.0889 25.3186 87.0725 25.3008 87.0624 25.2794L84.7073 20.7643C84.689 20.7359 84.6602 20.7359 84.6602 20.7643V25.2408C84.661 25.2535 84.659 25.2662 84.6544 25.2781C84.6498 25.29 84.6427 25.3009 84.6335 25.3099C84.6244 25.3189 84.6134 25.3259 84.6013 25.3304C84.5892 25.335 84.5763 25.3369 84.5634 25.3362H83.8254C83.8134 25.3372 83.8013 25.3359 83.7897 25.3323C83.7782 25.3288 83.7675 25.323 83.7583 25.3153C83.749 25.3076 83.7414 25.2982 83.7359 25.2877C83.7303 25.2771 83.727 25.2655 83.726 25.2536Z" fill="black"/>
<path d="M42.7334 36.0838V29.5934C42.7327 29.5807 42.7347 29.568 42.7393 29.556C42.7438 29.5441 42.751 29.5333 42.7601 29.5243C42.7692 29.5153 42.7802 29.5083 42.7923 29.5038C42.8044 29.4992 42.8173 29.4973 42.8303 29.498H43.5656C43.5785 29.4973 43.5914 29.4992 43.6035 29.5038C43.6156 29.5083 43.6266 29.5153 43.6357 29.5243C43.6449 29.5333 43.652 29.5441 43.6566 29.556C43.6612 29.568 43.6632 29.5807 43.6624 29.5934V36.0838C43.6632 36.0965 43.6612 36.1092 43.6566 36.1211C43.652 36.1331 43.6449 36.1439 43.6357 36.1529C43.6266 36.1619 43.6156 36.1689 43.6035 36.1734C43.5914 36.178 43.5785 36.1799 43.5656 36.1792H42.8303C42.8173 36.1799 42.8044 36.178 42.7923 36.1734C42.7802 36.1689 42.7692 36.1619 42.7601 36.1529C42.751 36.1439 42.7438 36.1331 42.7393 36.1211C42.7347 36.1092 42.7327 36.0965 42.7334 36.0838Z" fill="black"/>
<path d="M45.0467 36.0837V29.5934C45.046 29.5807 45.048 29.5679 45.0525 29.556C45.0571 29.5441 45.0642 29.5333 45.0734 29.5243C45.0825 29.5152 45.0935 29.5082 45.1056 29.5037C45.1177 29.4992 45.1306 29.4972 45.1435 29.498H45.8684C45.8926 29.4965 45.9166 29.5021 45.9375 29.514C45.9585 29.5259 45.9754 29.5437 45.9862 29.565L48.3413 34.0595C48.3596 34.0879 48.3884 34.0879 48.3884 34.0595V29.5934C48.3876 29.5807 48.3896 29.5679 48.3942 29.556C48.3988 29.5441 48.4059 29.5333 48.4151 29.5243C48.4242 29.5152 48.4352 29.5082 48.4473 29.5037C48.4594 29.4992 48.4723 29.4972 48.4852 29.498H49.2336C49.2466 29.4972 49.2595 29.4992 49.2716 29.5037C49.2837 29.5082 49.2946 29.5152 49.3038 29.5243C49.3129 29.5333 49.32 29.5441 49.3246 29.556C49.3292 29.5679 49.3312 29.5807 49.3305 29.5934V36.0837C49.3312 36.0964 49.3292 36.1092 49.3246 36.1211C49.32 36.133 49.3129 36.1438 49.3038 36.1528C49.2946 36.1619 49.2837 36.1689 49.2716 36.1734C49.2595 36.1779 49.2466 36.1799 49.2336 36.1791H48.4983C48.4742 36.1806 48.4501 36.175 48.4292 36.1631C48.4082 36.1512 48.3913 36.1334 48.3806 36.1121L46.0254 31.597C46.0071 31.5686 45.9757 31.5686 45.9757 31.597V36.0734C45.9765 36.0861 45.9745 36.0989 45.9699 36.1108C45.9653 36.1227 45.9582 36.1335 45.949 36.1425C45.9399 36.1515 45.9289 36.1585 45.9168 36.1631C45.9047 36.1676 45.8918 36.1696 45.8789 36.1688H45.1435C45.1315 36.1695 45.1195 36.1679 45.1081 36.164C45.0967 36.16 45.0862 36.154 45.0772 36.1461C45.0682 36.1382 45.0609 36.1286 45.0557 36.1179C45.0504 36.1072 45.0474 36.0956 45.0467 36.0837Z" fill="black"/>
<path d="M50.7121 36.0837V29.5934C50.711 29.5809 50.7126 29.5683 50.7167 29.5565C50.7208 29.5446 50.7274 29.5337 50.736 29.5245C50.7446 29.5153 50.7551 29.5079 50.7668 29.5029C50.7784 29.4979 50.791 29.4953 50.8037 29.4954H51.539C51.552 29.4946 51.5649 29.4966 51.577 29.5011C51.5891 29.5057 51.6001 29.5127 51.6092 29.5217C51.6184 29.5307 51.6255 29.5415 51.6301 29.5534C51.6347 29.5653 51.6366 29.5781 51.6359 29.5908V36.0811C51.6366 36.0939 51.6347 36.1066 51.6301 36.1185C51.6255 36.1304 51.6184 36.1412 51.6092 36.1503C51.6001 36.1593 51.5891 36.1663 51.577 36.1708C51.5649 36.1753 51.552 36.1773 51.539 36.1765H50.8037C50.7915 36.1765 50.7793 36.1741 50.7681 36.1694C50.7568 36.1647 50.7466 36.1579 50.738 36.1492C50.7295 36.1405 50.7228 36.1303 50.7183 36.119C50.7139 36.1078 50.7118 36.0958 50.7121 36.0837Z" fill="black"/>
<path d="M56.9166 29.5934V30.2046C56.9174 30.2173 56.9154 30.23 56.9108 30.2419C56.9062 30.2539 56.8991 30.2647 56.89 30.2737C56.8808 30.2827 56.8698 30.2897 56.8578 30.2942C56.8457 30.2988 56.8327 30.3007 56.8198 30.3H55.2523C55.2421 30.3006 55.2325 30.3048 55.2253 30.312C55.218 30.3191 55.2137 30.3286 55.2131 30.3386V36.0838C55.2138 36.0965 55.2119 36.1092 55.2073 36.1211C55.2027 36.1331 55.1956 36.1439 55.1864 36.1529C55.1773 36.1619 55.1663 36.1689 55.1542 36.1734C55.1421 36.178 55.1292 36.1799 55.1163 36.1792H54.3809C54.368 36.1799 54.3551 36.178 54.343 36.1734C54.3309 36.1689 54.3199 36.1619 54.3108 36.1529C54.3016 36.1439 54.2945 36.1331 54.2899 36.1211C54.2853 36.1092 54.2833 36.0965 54.2841 36.0838V30.3386C54.283 30.3288 54.2785 30.3196 54.2714 30.3125C54.2642 30.3055 54.2549 30.3011 54.2449 30.3H52.7533C52.7403 30.3007 52.7274 30.2988 52.7153 30.2942C52.7032 30.2897 52.6923 30.2827 52.6831 30.2737C52.674 30.2647 52.6669 30.2539 52.6623 30.2419C52.6577 30.23 52.6557 30.2173 52.6564 30.2046V29.5934C52.6557 29.5807 52.6577 29.568 52.6623 29.556C52.6669 29.5441 52.674 29.5333 52.6831 29.5243C52.6923 29.5153 52.7032 29.5083 52.7153 29.5038C52.7274 29.4992 52.7403 29.4973 52.7533 29.498H56.8224C56.8351 29.4976 56.8478 29.4999 56.8596 29.5046C56.8713 29.5093 56.882 29.5163 56.8908 29.5253C56.8997 29.5343 56.9066 29.545 56.911 29.5567C56.9155 29.5684 56.9174 29.5809 56.9166 29.5934Z" fill="black"/>
<path d="M57.945 36.0838V29.5934C57.9443 29.5807 57.9463 29.568 57.9509 29.556C57.9555 29.5441 57.9626 29.5333 57.9717 29.5243C57.9809 29.5153 57.9918 29.5083 58.0039 29.5038C58.016 29.4992 58.029 29.4973 58.0419 29.498H58.7772C58.7901 29.4973 58.803 29.4992 58.8151 29.5038C58.8272 29.5083 58.8382 29.5153 58.8473 29.5243C58.8565 29.5333 58.8636 29.5441 58.8682 29.556C58.8728 29.568 58.8748 29.5807 58.874 29.5934V36.0838C58.8748 36.0965 58.8728 36.1092 58.8682 36.1211C58.8636 36.1331 58.8565 36.1439 58.8473 36.1529C58.8382 36.1619 58.8272 36.1689 58.8151 36.1734C58.803 36.178 58.7901 36.1799 58.7772 36.1792H58.0419C58.029 36.1799 58.016 36.178 58.0039 36.1734C57.9918 36.1689 57.9809 36.1619 57.9717 36.1529C57.9626 36.1439 57.9555 36.1331 57.9509 36.1211C57.9463 36.1092 57.9443 36.0965 57.945 36.0838Z" fill="black"/>
<path d="M63.6262 36.0915L63.3645 34.9852C63.3645 34.9672 63.3357 34.9569 63.3148 34.9569H61.1768C61.1559 34.9569 61.1376 34.9569 61.1271 34.9852L60.8366 36.0915C60.834 36.117 60.8213 36.1405 60.8012 36.1569C60.7811 36.1733 60.7553 36.1813 60.7294 36.1791H59.9626C59.8946 36.1791 59.8553 36.1405 59.8763 36.0734L61.6662 29.5857C61.6705 29.5608 61.6837 29.5384 61.7034 29.5223C61.7231 29.5062 61.7479 29.4976 61.7735 29.498H62.6841C62.7095 29.4971 62.7343 29.5057 62.7537 29.5219C62.773 29.5381 62.7855 29.5608 62.7888 29.5857L64.5918 36.0734C64.6101 36.1405 64.5708 36.1791 64.5028 36.1791H63.7387C63.712 36.182 63.6852 36.1745 63.6642 36.1581C63.6431 36.1417 63.6295 36.1177 63.6262 36.0915ZM61.3522 34.2323H63.1028C63.1211 34.2323 63.1499 34.2117 63.1394 34.1936L62.2602 30.7589C62.2602 30.7306 62.2314 30.7306 62.2209 30.7589L61.3208 34.1936C61.3129 34.2117 61.3417 34.2323 61.3626 34.2323H61.3522Z" fill="black"/>
<path d="M68.8363 29.5934V30.2046C68.837 30.2173 68.835 30.23 68.8304 30.2419C68.8258 30.2538 68.8187 30.2647 68.8096 30.2737C68.8004 30.2827 68.7895 30.2897 68.7774 30.2942C68.7653 30.2988 68.7524 30.3007 68.7394 30.3H67.1693C67.1596 30.3012 67.1506 30.3057 67.1439 30.3127C67.1372 30.3198 67.1332 30.329 67.1327 30.3386V36.0838C67.1335 36.0965 67.1315 36.1092 67.1269 36.1211C67.1223 36.133 67.1152 36.1439 67.106 36.1529C67.0969 36.1619 67.0859 36.1689 67.0738 36.1734C67.0617 36.178 67.0488 36.1799 67.0359 36.1792H66.2979C66.285 36.1799 66.2721 36.178 66.26 36.1734C66.2479 36.1689 66.2369 36.1619 66.2278 36.1529C66.2186 36.1439 66.2115 36.133 66.2069 36.1211C66.2023 36.1092 66.2004 36.0965 66.2011 36.0838V30.3386C66.2006 30.329 66.1966 30.3198 66.1899 30.3127C66.1832 30.3057 66.1742 30.3012 66.1645 30.3H64.6729C64.66 30.3007 64.647 30.2988 64.635 30.2942C64.6229 30.2897 64.6119 30.2827 64.6027 30.2737C64.5936 30.2647 64.5865 30.2538 64.5819 30.2419C64.5773 30.23 64.5753 30.2173 64.5761 30.2046V29.5934C64.5749 29.5805 64.5766 29.5675 64.581 29.5552C64.5854 29.543 64.5925 29.5319 64.6017 29.5226C64.6109 29.5133 64.622 29.506 64.6343 29.5013C64.6466 29.4967 64.6597 29.4946 64.6729 29.4954H68.729C68.7429 29.493 68.7573 29.4937 68.7709 29.4977C68.7845 29.5016 68.797 29.5086 68.8074 29.5181C68.8178 29.5276 68.8258 29.5393 68.8308 29.5524C68.8358 29.5655 68.8377 29.5795 68.8363 29.5934Z" fill="black"/>
<path d="M69.862 36.0838V29.5934C69.8613 29.5807 69.8633 29.568 69.8679 29.556C69.8725 29.5441 69.8796 29.5333 69.8887 29.5243C69.8979 29.5153 69.9088 29.5083 69.9209 29.5038C69.933 29.4992 69.946 29.4973 69.9589 29.498H70.6916C70.7045 29.4973 70.7174 29.4992 70.7295 29.5038C70.7416 29.5083 70.7526 29.5153 70.7617 29.5243C70.7709 29.5333 70.778 29.5441 70.7826 29.556C70.7872 29.568 70.7892 29.5807 70.7884 29.5934V36.0838C70.7892 36.0965 70.7872 36.1092 70.7826 36.1211C70.778 36.1331 70.7709 36.1439 70.7617 36.1529C70.7526 36.1619 70.7416 36.1689 70.7295 36.1734C70.7174 36.178 70.7045 36.1799 70.6916 36.1792H69.9589C69.946 36.1799 69.933 36.178 69.9209 36.1734C69.9088 36.1689 69.8979 36.1619 69.8887 36.1529C69.8796 36.1439 69.8725 36.1331 69.8679 36.1211C69.8633 36.1092 69.8613 36.0965 69.862 36.0838Z" fill="black"/>
<path d="M73.5335 36.0915L71.7985 29.6037C71.7802 29.5367 71.8194 29.498 71.8849 29.498H72.6699C72.6957 29.4965 72.7212 29.5047 72.7411 29.521C72.761 29.5372 72.7739 29.5604 72.7772 29.5857L74.0359 34.699C74.0359 34.7377 74.0647 34.7377 74.0725 34.699L75.3312 29.5857C75.3345 29.5604 75.3474 29.5372 75.3673 29.521C75.3872 29.5047 75.4127 29.4965 75.4385 29.498H76.2026C76.2707 29.498 76.3099 29.5367 76.2916 29.6037L74.5383 36.0915C74.5345 36.1165 74.5214 36.1393 74.5016 36.1554C74.4819 36.1716 74.4567 36.18 74.431 36.1791H73.6277C73.6041 36.1775 73.5818 36.1679 73.5646 36.1519C73.5475 36.1359 73.5364 36.1146 73.5335 36.0915Z" fill="black"/>
<path d="M81.0254 30.2922H78.2176C78.2078 30.2928 78.1985 30.2967 78.1913 30.3033C78.1841 30.3099 78.1795 30.3187 78.1783 30.3283V32.3912C78.1795 32.4008 78.1841 32.4097 78.1913 32.4163C78.1985 32.4229 78.2078 32.4268 78.2176 32.4273H80.0676C80.0806 32.4266 80.0935 32.4285 80.1056 32.433C80.1177 32.4376 80.1287 32.4446 80.1378 32.4536C80.147 32.4626 80.1541 32.4734 80.1587 32.4853C80.1633 32.4973 80.1652 32.51 80.1645 32.5227V33.1261C80.1652 33.1388 80.1633 33.1516 80.1587 33.1635C80.1541 33.1754 80.147 33.1862 80.1378 33.1952C80.1287 33.2043 80.1177 33.2113 80.1056 33.2158C80.0935 33.2203 80.0806 33.2223 80.0676 33.2215H78.2176C78.2078 33.222 78.1985 33.226 78.1913 33.2326C78.1841 33.2392 78.1795 33.248 78.1783 33.2576V35.3489C78.1795 35.3585 78.1841 35.3673 78.1913 35.3739C78.1985 35.3805 78.2078 35.3844 78.2176 35.385H81.0254C81.0386 35.3842 81.0517 35.3862 81.064 35.3909C81.0763 35.3955 81.0874 35.4028 81.0966 35.4121C81.1058 35.4214 81.1129 35.4325 81.1173 35.4448C81.1217 35.457 81.1234 35.47 81.1222 35.483V36.0838C81.123 36.0965 81.121 36.1092 81.1164 36.1211C81.1118 36.1331 81.1047 36.1439 81.0956 36.1529C81.0864 36.1619 81.0754 36.1689 81.0633 36.1734C81.0513 36.178 81.0383 36.1799 81.0254 36.1792H77.3462C77.3332 36.1799 77.3203 36.178 77.3082 36.1734C77.2961 36.1689 77.2851 36.1619 77.276 36.1529C77.2669 36.1439 77.2598 36.1331 77.2552 36.1211C77.2506 36.1092 77.2486 36.0965 77.2493 36.0838V29.5934C77.2486 29.5807 77.2506 29.568 77.2552 29.556C77.2598 29.5441 77.2669 29.5333 77.276 29.5243C77.2851 29.5153 77.2961 29.5083 77.3082 29.5038C77.3203 29.4992 77.3332 29.4973 77.3462 29.498H81.0254C81.0383 29.4973 81.0513 29.4992 81.0633 29.5038C81.0754 29.5083 81.0864 29.5153 81.0956 29.5243C81.1047 29.5333 81.1118 29.5441 81.1164 29.556C81.121 29.568 81.123 29.5807 81.1222 29.5934V30.1968C81.123 30.2095 81.121 30.2223 81.1164 30.2342C81.1118 30.2461 81.1047 30.2569 81.0956 30.266C81.0864 30.275 81.0754 30.282 81.0633 30.2865C81.0513 30.291 81.0383 30.293 81.0254 30.2922Z" fill="black"/>
<path d="M30.4527 36.2462V7.83521H36.2595V36.2462H30.4527Z" fill="url(#paint0_linear)"/>
<path d="M6.12411 29.7533C6.12411 31.9451 5.56934 33.5206 4.41794 34.4438C3.26654 35.3669 1.81943 35.9161 0.00335693 36.0193V41.1765C2.37594 41.1077 4.4537 40.6281 6.23663 39.7376C8.01607 38.848 9.42654 37.7985 10.4235 36.1534C11.4206 34.5082 11.9439 32.239 11.9439 29.8771V7.83521L6.12411 12.7913V29.7533Z" fill="url(#paint1_linear)"/>
<path d="M30.4527 7.83521V12.7861H24.0022V36.2513H18.1955V12.7861H11.9492V7.83521H30.4527Z" fill="url(#paint2_linear)"/>
<path d="M36.2595 7.84033H30.4527V12.7912L36.2595 7.84033Z" fill="#5B7E07"/>
<path d="M6.12408 12.7912H11.9491V7.84033L6.12408 12.7912Z" fill="#01580F"/>
</g>
</g>
<defs>
<linearGradient id="paint0_linear" x1="33.3574" y1="7.84036" x2="33.3574" y2="36.2462" gradientUnits="userSpaceOnUse">
<stop stop-color="#F5C43C"/>
<stop offset="1" stop-color="#F5B23C"/>
</linearGradient>
<linearGradient id="paint1_linear" x1="5.97757" y1="7.83778" x2="5.97757" y2="41.1997" gradientUnits="userSpaceOnUse">
<stop stop-color="#018A78"/>
<stop offset="1" stop-color="#018085"/>
</linearGradient>
<linearGradient id="paint2_linear" x1="21.2022" y1="7.84036" x2="21.2022" y2="36.2462" gradientUnits="userSpaceOnUse">
<stop stop-color="#61A319"/>
<stop offset="1" stop-color="#2CA119"/>
</linearGradient>
<clipPath id="clip0">
<rect width="88" height="41" fill="white" transform="translate(0 0.958496)"/>
</clipPath>
<clipPath id="clip1">
<rect width="88" height="35" fill="white" transform="translate(0 6.9585)"/>
</clipPath>
</defs>
</svg>
