<svg aria-hidden="true" style="position: absolute; width: 0; height: 0; overflow: hidden;" version="1.1" xmlns="http://www.w3.org/2000/svg" xmlns:xlink="http://www.w3.org/1999/xlink">
<defs>
<symbol id="icon-download-outline" viewBox="0 0 36 32">
<path fill="#018085" style="fill: var(--color1, #018085)" d="M10.324 12c-0.421 0-0.825 0.158-1.123 0.439s-0.465 0.663-0.465 1.061v13c0 0.398 0.167 0.779 0.465 1.061s0.702 0.439 1.123 0.439h15.882c0.421 0 0.825-0.158 1.123-0.439s0.465-0.663 0.465-1.061v-13c0-0.398-0.167-0.779-0.465-1.061s-0.702-0.439-1.123-0.439h-2.647c-0.585 0-1.059-0.448-1.059-1s0.474-1 1.059-1h2.647c0.983 0 1.925 0.369 2.62 1.025s1.085 1.547 1.085 2.475v13c0 0.928-0.39 1.819-1.085 2.475s-1.638 1.025-2.62 1.025h-15.882c-0.983 0-1.925-0.369-2.62-1.025s-1.085-1.547-1.085-2.475v-13c0-0.928 0.39-1.819 1.085-2.475s1.638-1.025 2.62-1.025h2.647c0.585 0 1.059 0.448 1.059 1s-0.474 1-1.059 1h-2.647z"></path>
<path fill="#018085" style="fill: var(--color1, #018085)" d="M12.222 16.293c0.413-0.391 1.084-0.391 1.497 0l4.545 4.293 4.545-4.293c0.413-0.391 1.084-0.391 1.497 0s0.413 1.024 0 1.414l-5.294 5c-0.414 0.39-1.084 0.39-1.497 0l-5.294-5c-0.413-0.391-0.413-1.024 0-1.414z"></path>
<path fill="#018085" style="fill: var(--color1, #018085)" d="M18.265 2c0.585 0 1.059 0.448 1.059 1v18c0 0.552-0.474 1-1.059 1s-1.059-0.448-1.059-1v-18c0-0.552 0.474-1 1.059-1z"></path>
</symbol>
<symbol id="icon-arrow-right-circle" viewBox="0 0 32 32">
<path fill="none" stroke="#018085" style="stroke: var(--color1, #018085)" stroke-linejoin="round" stroke-linecap="round" stroke-miterlimit="4" stroke-width="2.6667" d="M16 29.333c7.364 0 13.333-5.97 13.333-13.333s-5.97-13.333-13.333-13.333c-7.364 0-13.333 5.97-13.333 13.333s5.97 13.333 13.333 13.333z"></path>
<path fill="none" stroke="#018085" style="stroke: var(--color1, #018085)" stroke-linejoin="round" stroke-linecap="round" stroke-miterlimit="4" stroke-width="2.6667" d="M16 21.333l5.333-5.333-5.333-5.333"></path>
<path fill="none" stroke="#018085" style="stroke: var(--color1, #018085)" stroke-linejoin="round" stroke-linecap="round" stroke-miterlimit="4" stroke-width="2.6667" d="M10.667 16h10.667"></path>
</symbol>
<symbol id="icon-info" viewBox="0 0 32 32">
<path fill="#018085" style="fill: var(--color1, #018085)" d="M16 0c-8.822 0-16 7.178-16 16s7.178 16 16 16c8.822 0 16-7.178 16-16s-7.178-16-16-16zM16 28.8c-7.058 0-12.8-5.742-12.8-12.8s5.742-12.8 12.8-12.8c7.058 0 12.8 5.742 12.8 12.8s-5.742 12.8-12.8 12.8z"></path>
<path fill="#018085" style="fill: var(--color1, #018085)" d="M14.4 14.4h3.2v9.6h-3.2v-9.6zM14.4 8h3.2v3.2h-3.2v-3.2z"></path>
</symbol>
<symbol id="icon-arrow-circle" viewBox="0 0 31 32">
<path fill="none" stroke="#000" style="stroke: var(--color2, #000)" stroke-linejoin="miter" stroke-linecap="butt" stroke-miterlimit="4" stroke-width="1.9048" d="M30.285 16.015c0 8.1-6.566 14.667-14.667 14.667s-14.667-6.566-14.667-14.667c0-8.1 6.566-14.667 14.667-14.667s14.667 6.566 14.667 14.667z"></path>
<path d="M17.084 15.238l-1.439-1.415c-0.3-0.295-0.304-0.777-0.009-1.077s0.777-0.304 1.077-0.009l2.807 2.761c0.281 0.276 0.281 0.729 0 1.005l-2.807 2.761c-0.3 0.295-0.782 0.291-1.077-0.009s-0.291-0.782 0.009-1.077l1.439-1.415h-5.117c-0.421 0-0.762-0.341-0.762-0.762s0.341-0.762 0.762-0.762h5.117z"></path>
</symbol>
<symbol id="icon-arrow-up" viewBox="0 0 26 32">
<path d="M25.268 13.046l-2.664 2.664-8.087-8.087v23.265h-3.767v-23.265l-8.087 8.087-2.664-2.664 12.634-12.634 12.634 12.634z"></path>
</symbol>
<symbol id="icon-arrow-down" viewBox="0 0 26 32">
<path d="M25.657 18.254l-2.664-2.664-8.087 8.087v-23.265h-3.767v23.265l-8.087-8.087-2.664 2.664 12.634 12.634 12.634-12.634z"></path>
</symbol>
<symbol id="icon-arrow-external" viewBox="0 0 23 32">
<path d="M7.643 9.143h15.214v15.214h-2.999v-10.057l-17.701 17.701-2.158-2.158 17.701-17.701h-10.057v-2.999z"></path>
</symbol>
<symbol id="icon-triangle-up" viewBox="0 0 32 32">
<path d="M16.501 13.648c-0.142-0.178-0.376-0.285-0.626-0.285s-0.485 0.106-0.626 0.285l-6.857 8.584c-0.162 0.202-0.18 0.465-0.048 0.682s0.391 0.354 0.674 0.354h13.714c0.283 0 0.543-0.137 0.675-0.354s0.113-0.48-0.049-0.682l-6.857-8.584z"></path>
</symbol>
<symbol id="icon-triangle-down" viewBox="0 0 30 32">
<path d="M14.612 22.984c0.142 0.178 0.376 0.285 0.626 0.285s0.485-0.106 0.626-0.285l6.857-8.584c0.162-0.202 0.18-0.465 0.048-0.682s-0.391-0.354-0.674-0.354h-13.714c-0.283 0-0.543 0.137-0.675 0.354s-0.113 0.48 0.049 0.682l6.857 8.584z"></path>
</symbol>
<symbol id="icon-chevron-left" viewBox="0 0 15 32">
<path d="M14.633 1.049c-0.741-0.85-1.944-0.85-2.685 0l-11.392 13.061c-0.741 0.85-0.741 2.228 0 3.079l11.392 13.061c0.741 0.85 1.944 0.85 2.685 0s0.742-2.228 0-3.079l-10.049-11.522 10.049-11.522c0.742-0.85 0.742-2.228 0-3.079z"></path>
</symbol>
<symbol id="icon-chevron-right" viewBox="0 0 15 32">
<path d="M0.556 1.049c0.741-0.85 1.944-0.85 2.685 0l11.392 13.061c0.741 0.85 0.741 2.228 0 3.079l-11.392 13.061c-0.741 0.85-1.944 0.85-2.685 0s-0.741-2.228 0-3.079l10.049-11.522-10.049-11.522c-0.741-0.85-0.741-2.228 0-3.079z"></path>
</symbol>
<symbol id="icon-bookmark" viewBox="0 0 24 32">
<path d="M22.549 12.885v-10.724c0-1.777-0.428-2.161-2.204-2.161h-18.141c-1.777 0-2.204 0.427-2.204 2.204v29.796l11.274-7.515 11.274 7.515v-19.115z"></path>
</symbol>
<symbol id="icon-calendar" viewBox="0 0 32 32">
<path d="M25.333 5.333h-2.667v-2.667h-2.667v2.667h-8v-2.667h-2.667v2.667h-2.667c-1.471 0-2.667 1.196-2.667 2.667v18.667c0 1.471 1.196 2.667 2.667 2.667h18.667c1.471 0 2.667-1.196 2.667-2.667v-18.667c0-1.471-1.196-2.667-2.667-2.667zM25.336 26.667h-18.669v-16h18.667l0.003 16z"></path>
<path d="M14.667 13.333h2.667v6.667h-2.667v-6.667zM14.667 21.333h2.667v2.667h-2.667v-2.667z"></path>
</symbol>
<symbol id="icon-filter" viewBox="0 0 39 32">
<path d="M1.731 0.827l13.846 16.854v8.989l9.231 3.371v-12.36l13.846-16.854h-36.923z"></path>
</symbol>
<symbol id="icon-videocam" viewBox="0 0 32 32">
<path d="M20.883 11.25v-5.333c0-0.283-0.112-0.554-0.312-0.754s-0.471-0.312-0.754-0.312h-19.2c-0.283 0-0.554 0.112-0.754 0.312s-0.312 0.471-0.312 0.754v17.067c0 0.283 0.112 0.554 0.312 0.754s0.471 0.312 0.754 0.312h19.2c0.283 0 0.554-0.112 0.754-0.312s0.312-0.471 0.312-0.754v-5.333l10.667 6.4v-19.2l-10.667 6.4z"></path>
</symbol>
<symbol id="icon-search" viewBox="0 0 34 32">
<path d="M22.627 25.234l6.18 6.172c0.78 0.792 2.040 0.792 2.82 0 0.784-0.79 0.784-2.068 0-2.86l-6.16-6.16c1.74-2.336 2.774-5.232 2.774-8.372 0-7.74-6.274-14.014-14.012-14.014-7.74 0-14.014 6.274-14.014 14.014s6.274 14.014 14.014 14.014c3.15 0 6.058-1.040 8.398-2.794zM14.227 24.024c-5.526 0-10.008-4.48-10.008-10.010 0-5.528 4.48-10.010 10.010-10.010 5.528 0 10.008 4.48 10.008 10.010 0 5.528-4.48 10.010-10.006 10.010h-0.004z"></path>
</symbol>
<symbol id="icon-close" viewBox="0 0 32 32">
<path d="M30.714 3.748c0.634-0.615 0.649-1.628 0.034-2.263s-1.628-0.649-2.263-0.034l-12.486 12.118-12.486-12.118c-0.634-0.615-1.647-0.6-2.263 0.034s-0.6 1.647 0.034 2.263l12.417 12.052-12.417 12.052c-0.634 0.616-0.649 1.628-0.034 2.263s1.628 0.649 2.263 0.034l12.486-12.118 12.486 12.118c0.634 0.615 1.647 0.6 2.263-0.034s0.6-1.647-0.034-2.263l-12.417-12.052 12.417-12.052z"></path>
</symbol>
<symbol id="icon-x" viewBox="0 0 33 32">
<path stroke-linejoin="round" stroke-linecap="round" stroke-miterlimit="4" stroke-width="1.9394" d="M24.727 8l-16.485 16"></path>
<path stroke-linejoin="round" stroke-linecap="round" stroke-miterlimit="4" stroke-width="1.9394" d="M8.242 8l16.485 16"></path>
</symbol>
<symbol id="icon-quotes" viewBox="0 0 43 32">
<path d="M10.233 12.667c-0.461 0-0.903 0.070-1.343 0.134 0.143-0.479 0.289-0.967 0.525-1.405 0.236-0.637 0.603-1.188 0.969-1.744 0.306-0.601 0.845-1.009 1.242-1.523 0.415-0.5 0.982-0.833 1.43-1.248 0.44-0.434 1.017-0.651 1.476-0.957 0.479-0.275 0.897-0.579 1.343-0.723 0.43-0.178 0.806-0.331 1.114-0.459 0.624-0.258 0.98-0.407 0.98-0.407l-1.002-4.005c0 0-0.451 0.107-1.234 0.298-0.395 0.099-0.876 0.215-1.424 0.353-0.56 0.103-1.157 0.386-1.823 0.645-0.657 0.293-1.418 0.492-2.125 0.963-0.711 0.451-1.531 0.827-2.255 1.43-0.701 0.622-1.546 1.161-2.17 1.953-0.682 0.74-1.356 1.517-1.879 2.401-0.606 0.843-1.017 1.769-1.451 2.685-0.393 0.916-0.709 1.852-0.967 2.761-0.49 1.823-0.709 3.555-0.794 5.037-0.070 1.484-0.029 2.718 0.058 3.61 0.031 0.422 0.089 0.831 0.13 1.114 0.035 0.225 0.052 0.347 0.052 0.347l0.054-0.012c0.899 4.199 4.625 7.353 9.093 7.353 5.136 0 9.3-4.164 9.3-9.3s-4.164-9.3-9.3-9.3zM32.967 12.667c-0.461 0-0.903 0.070-1.343 0.134 0.143-0.479 0.289-0.967 0.525-1.405 0.236-0.637 0.604-1.188 0.969-1.744 0.306-0.601 0.845-1.009 1.242-1.523 0.415-0.5 0.982-0.833 1.43-1.248 0.44-0.434 1.017-0.651 1.476-0.957 0.479-0.275 0.897-0.579 1.343-0.723 0.43-0.178 0.806-0.331 1.114-0.459 0.624-0.258 0.98-0.407 0.98-0.407l-1.002-4.005c0 0-0.451 0.107-1.234 0.298-0.395 0.099-0.876 0.215-1.424 0.353-0.56 0.103-1.157 0.386-1.823 0.645-0.655 0.296-1.418 0.492-2.124 0.965-0.711 0.451-1.531 0.827-2.255 1.43-0.701 0.622-1.546 1.161-2.17 1.951-0.682 0.74-1.356 1.517-1.879 2.401-0.605 0.843-1.017 1.769-1.451 2.685-0.393 0.916-0.709 1.852-0.967 2.761-0.49 1.823-0.709 3.555-0.794 5.037-0.070 1.484-0.029 2.718 0.058 3.61 0.031 0.422 0.089 0.831 0.13 1.114 0.035 0.225 0.052 0.347 0.052 0.347l0.054-0.012c0.899 4.199 4.625 7.353 9.093 7.353 5.136 0 9.3-4.164 9.3-9.3s-4.164-9.3-9.3-9.3z"></path>
</symbol>
<symbol id="icon-minus" viewBox="0 0 18 32">
<path d="M1.524 14.476h15.238c0.842 0 1.524 0.682 1.524 1.524s-0.682 1.524-1.524 1.524h-15.238c-0.842 0-1.524-0.682-1.524-1.524s0.682-1.524 1.524-1.524z"></path>
</symbol>
<symbol id="icon-plus" viewBox="0 0 16 32">
<path d="M6.667 22.667c0 0.736 0.597 1.333 1.333 1.333s1.333-0.597 1.333-1.333v-5.333h5.333c0.736 0 1.333-0.597 1.333-1.333s-0.597-1.333-1.333-1.333h-5.333v-5.333c0-0.736-0.597-1.333-1.333-1.333s-1.333 0.597-1.333 1.333v5.333h-5.333c-0.736 0-1.333 0.597-1.333 1.333s0.597 1.333 1.333 1.333h5.333v5.333z"></path>
</symbol>
<symbol id="icon-facebook-fill" viewBox="0 0 32 32">
<path d="M30.222 0h-28.444c-0.983 0-1.778 0.796-1.778 1.778v28.444c0 0.981 0.795 1.778 1.778 1.778h15.316v-12.373h-4.156v-4.845h4.156v-3.556c0-4.133 2.524-6.386 6.222-6.386 1.243-0.004 2.487 0.060 3.724 0.19v4.302h-2.551c-2.005 0-2.396 0.956-2.396 2.356v3.084h4.795l-0.622 4.844h-4.174v12.382h8.132c0.983 0 1.778-0.796 1.778-1.778v-28.444c0-0.981-0.795-1.778-1.778-1.778z"></path>
</symbol>
<symbol id="icon-facebook" viewBox="0 0 32 32">
<path d="M17.863 27.996v-10.928h3.687l0.548-4.279h-4.235v-2.725c0-1.235 0.344-2.080 2.116-2.080h2.245v-3.815c-1.092-0.117-2.191-0.173-3.289-0.169-3.259 0-5.496 1.989-5.496 5.641v3.14h-3.663v4.279h3.671v10.936h4.416z"></path>
</symbol>
<symbol id="icon-linkedin-fill" viewBox="0 0 31 32">
<path d="M26.738 3.52h-22.756c-0.786 0-1.422 0.637-1.422 1.422v22.756c0 0.785 0.636 1.422 1.422 1.422h22.756c0.786 0 1.422-0.637 1.422-1.422v-22.756c0-0.785-0.636-1.422-1.422-1.422zM10.153 25.333h-3.8v-12.217h3.8v12.217zM8.253 11.447c-1.217 0-2.202-0.987-2.202-2.202s0.983-2.202 2.202-2.202c1.215 0 2.202 0.986 2.202 2.202s-0.987 2.202-2.202 2.202zM24.374 25.333h-3.796v-5.941c0-1.417-0.026-3.238-1.974-3.238-1.977 0-2.277 1.545-2.277 3.139v6.042h-3.793v-12.217h3.641v1.67h0.053c0.505-0.96 1.745-1.973 3.59-1.973 3.846 0 4.555 2.529 4.555 5.82v6.699h0.001z"></path>
</symbol>
<symbol id="icon-link" viewBox="0 0 32 32">
<path d="M9.716 14.743c2.014-2.014 5.527-2.014 7.541 0l1.257 1.257 2.514-2.514-1.257-1.257c-1.676-1.678-3.909-2.604-6.284-2.604s-4.608 0.926-6.284 2.604l-3.772 3.771c-3.463 3.465-3.463 9.106 0 12.571 1.733 1.733 4.009 2.599 6.284 2.599 2.277 0 4.555-0.866 6.286-2.599l1.257-1.257-2.514-2.514-1.257 1.257c-2.080 2.075-5.463 2.078-7.543 0-2.078-2.080-2.078-5.463 0-7.543l3.772-3.771z"></path>
<path d="M16 3.429l-1.257 1.257 2.514 2.514 1.257-1.257c2.078-2.075 5.461-2.078 7.543 0 2.078 2.080 2.078 5.463 0 7.543l-3.772 3.771c-2.014 2.014-5.527 2.014-7.541 0l-1.257-1.257-2.514 2.514 1.257 1.257c1.676 1.678 3.909 2.604 6.284 2.604s4.608-0.926 6.284-2.604l3.772-3.771c3.463-3.465 3.463-9.106 0-12.571-3.467-3.467-9.108-3.465-12.571 0z"></path>
</symbol>
<symbol id="icon-linkedin" viewBox="0 0 32 32">
<path d="M5.024 8.753c2.035 0 3.685-1.65 3.685-3.685s-1.65-3.685-3.685-3.685c-2.035 0-3.685 1.65-3.685 3.685s1.65 3.685 3.685 3.685z"></path>
<path d="M12.189 11.545v20.445h6.348v-10.11c0-2.668 0.502-5.251 3.81-5.251 3.262 0 3.303 3.050 3.303 5.42v9.944h6.351v-11.212c0-5.507-1.186-9.74-7.623-9.74-3.091 0-5.162 1.696-6.009 3.301h-0.086v-2.796h-6.094zM1.844 11.545h6.358v20.445h-6.358v-20.445z"></path>
</symbol>
<symbol id="icon-mail" viewBox="0 0 44 32">
<path d="M22.898 22.273c-0.263 0.21-0.587 0.324-0.921 0.324s-0.657-0.114-0.921-0.324l-20.056-17.58v24.769c0 0.408 0.158 0.799 0.439 1.088s0.663 0.451 1.061 0.451h39c0.398 0 0.779-0.162 1.061-0.451s0.439-0.68 0.439-1.088v-24.988l-20.102 17.799zM41.488 1l-19.511 17.186-19.53-17.185c0.018-0.001 0.035-0.001 0.053-0.001h38.988z"></path>
</symbol>
<symbol id="icon-twitter" viewBox="0 0 36 32">
<path d="M31.903 8.758c0.024 0.317 0.024 0.631 0.024 0.946 0 9.634-7.333 20.736-20.734 20.736-4.129 0-7.964-1.196-11.192-3.273 0.586 0.067 1.151 0.090 1.76 0.090 3.407 0 6.542-1.151 9.048-3.114-3.204-0.067-5.889-2.166-6.816-5.053 0.45 0.067 0.903 0.112 1.377 0.112 0.653 0 1.31-0.090 1.92-0.248-3.342-0.677-5.844-3.609-5.844-7.152v-0.090c0.972 0.541 2.099 0.879 3.293 0.925-1.963-1.306-3.249-3.541-3.249-6.068 0-1.353 0.36-2.595 0.991-3.676 3.588 4.42 8.981 7.309 15.028 7.626-0.112-0.543-0.181-1.105-0.181-1.67 0-4.017 3.249-7.288 7.288-7.288 2.099 0 3.993 0.879 5.325 2.301 1.646-0.317 3.224-0.926 4.625-1.76-0.541 1.692-1.694 3.114-3.204 4.017 1.467-0.159 2.889-0.564 4.196-1.129-0.991 1.444-2.231 2.73-3.653 3.769z"></path>
</symbol>
<symbol id="icon-printer" viewBox="0 0 32 32">
<path d="M28.8 7.2h-3.2v-6.4h-19.2v6.4h-3.2c-2.651 0-3.2 0.549-3.2 3.2v12.8c0 1.766 1.434 3.2 3.2 3.2h3.2v4.8h19.2v-4.8h3.2c1.766 0 3.2-1.434 3.2-3.2v-12.8c0-2.651-0.549-3.2-3.2-3.2zM9.6 4h12.8v3.2h-12.8v-3.2zM9.6 28v-6.4h12.8v6.4h-12.8zM27.2 15.2h-3.2v-3.2h3.2v3.2z"></path>
</symbol>
</defs>
</svg>
