<!-- Generated by IcoMoon.io -->
<svg version="1.1" xmlns="http://www.w3.org/2000/svg" width="32" height="32" viewBox="0 0 32 32">
<title>facebook-fill</title>
<path d="M30.222 0h-28.444c-0.983 0-1.778 0.796-1.778 1.778v28.444c0 0.981 0.795 1.778 1.778 1.778h15.316v-12.373h-4.156v-4.845h4.156v-3.556c0-4.133 2.524-6.386 6.222-6.386 1.243-0.004 2.487 0.060 3.724 0.19v4.302h-2.551c-2.005 0-2.396 0.956-2.396 2.356v3.084h4.795l-0.622 4.844h-4.174v12.382h8.132c0.983 0 1.778-0.796 1.778-1.778v-28.444c0-0.981-0.795-1.778-1.778-1.778z"></path>
</svg>
