<!-- Generated by IcoMoon.io -->
<svg version="1.1" xmlns="http://www.w3.org/2000/svg" width="32" height="32" viewBox="0 0 32 32">
<title>linkedin</title>
<path d="M5.024 8.753c2.035 0 3.685-1.65 3.685-3.685s-1.65-3.685-3.685-3.685c-2.035 0-3.685 1.65-3.685 3.685s1.65 3.685 3.685 3.685z"></path>
<path d="M12.189 11.545v20.445h6.348v-10.11c0-2.668 0.502-5.251 3.81-5.251 3.262 0 3.303 3.050 3.303 5.42v9.944h6.351v-11.212c0-5.507-1.186-9.74-7.623-9.74-3.091 0-5.162 1.696-6.009 3.301h-0.086v-2.796h-6.094zM1.844 11.545h6.358v20.445h-6.358v-20.445z"></path>
</svg>
