<!-- Generated by IcoMoon.io -->
<svg version="1.1" xmlns="http://www.w3.org/2000/svg" width="32" height="32" viewBox="0 0 32 32">
<title>link</title>
<path d="M9.716 14.743c2.014-2.014 5.527-2.014 7.541 0l1.257 1.257 2.514-2.514-1.257-1.257c-1.676-1.678-3.909-2.604-6.284-2.604s-4.608 0.926-6.284 2.604l-3.772 3.771c-3.463 3.465-3.463 9.106 0 12.571 1.733 1.733 4.009 2.599 6.284 2.599 2.277 0 4.555-0.866 6.286-2.599l1.257-1.257-2.514-2.514-1.257 1.257c-2.080 2.075-5.463 2.078-7.543 0-2.078-2.080-2.078-5.463 0-7.543l3.772-3.771z"></path>
<path d="M16 3.429l-1.257 1.257 2.514 2.514 1.257-1.257c2.078-2.075 5.461-2.078 7.543 0 2.078 2.080 2.078 5.463 0 7.543l-3.772 3.771c-2.014 2.014-5.527 2.014-7.541 0l-1.257-1.257-2.514 2.514 1.257 1.257c1.676 1.678 3.909 2.604 6.284 2.604s4.608-0.926 6.284-2.604l3.772-3.771c3.463-3.465 3.463-9.106 0-12.571-3.467-3.467-9.108-3.465-12.571 0z"></path>
</svg>
