<!-- Generated by IcoMoon.io -->
<svg version="1.1" xmlns="http://www.w3.org/2000/svg" width="36" height="32" viewBox="0 0 36 32">
<title>twitter</title>
<path d="M31.903 8.758c0.024 0.317 0.024 0.631 0.024 0.946 0 9.634-7.333 20.736-20.734 20.736-4.129 0-7.964-1.196-11.192-3.273 0.586 0.067 1.151 0.090 1.76 0.090 3.407 0 6.542-1.151 9.048-3.114-3.204-0.067-5.889-2.166-6.816-5.053 0.45 0.067 0.903 0.112 1.377 0.112 0.653 0 1.31-0.090 1.92-0.248-3.342-0.677-5.844-3.609-5.844-7.152v-0.090c0.972 0.541 2.099 0.879 3.293 0.925-1.963-1.306-3.249-3.541-3.249-6.068 0-1.353 0.36-2.595 0.991-3.676 3.588 4.42 8.981 7.309 15.028 7.626-0.112-0.543-0.181-1.105-0.181-1.67 0-4.017 3.249-7.288 7.288-7.288 2.099 0 3.993 0.879 5.325 2.301 1.646-0.317 3.224-0.926 4.625-1.76-0.541 1.692-1.694 3.114-3.204 4.017 1.467-0.159 2.889-0.564 4.196-1.129-0.991 1.444-2.231 2.73-3.653 3.769z"></path>
</svg>
